# xmcd
#
# Track frame offsets:
#	150
#	25789
#	47282
#	63717
#	78204
#	97356
#	109236
#	121859
#	136675
#	163311
#	179681
#	205786
#	224629
#	239449
#	266970
#	281425
#	313270
#
# Disc length: 4700 seconds
#
# Revision: 0
# Processed by: cddbd v1.5.2PL0 Copyright (c) Steve Scherf et al.
# Submitted via: EZCDAudioConverter 2.1.7.1
#
DISCID=05125a11
DTITLE=Jah Wobble - Redux 3/6
DYEAR=1900
DGENRE=
TTITLE0=Jah Wobble's Invaders Of The Heart - Soledad
TTITLE1=Jah Wobble - Om Namah Shiva
TTITLE2=Jah Wobble and The Chinese Dub Orchestra - L1
TTITLE3=Jah Wobble's Invaders Of The Heart - I'm An Algerian
TTITLE4=Jah Wobble and The Nippon Dub Ensemble - Cherry Blossom Of My Youth
TTITLE5=Jah Wobble - Appalachian Mountain Dub
TTITLE6=Jah Wobble - Reggae Parts The Sea
TTITLE7=Jah Wobble - Mumbai Blues Dub
TTITLE8=Jah Wobble's Invaders Of The Heart - Bomba
TTITLE9=Jah Wobble and The Chinese Dub Orchestra - Kang Ding Love Song
TTITLE10=Jah Wobble, Bill Laswell - Alsema Dub
TTITLE11=Jah Wobble's Invaders Of The Heart - Angels
TTITLE12=Jah Wobble and The Nippon Dub Ensemble - K Dub 05
TTITLE13=Jah Wobble and The Chinese Dub Orchestra - Happy Tibetan Girl
TTITLE14=Jah Wobble - New Mexico Dub
TTITLE15=Jah Wobble's Invaders Of The Heart - Erzulie
TTITLE16=Jah Wobble - Heaven And Earth
EXTD=
EXTT0=
EXTT1=
EXTT2=
EXTT3=
EXTT4=
EXTT5=
EXTT6=
EXTT7=
EXTT8=
EXTT9=
EXTT10=
EXTT11=
EXTT12=
EXTT13=
EXTT14=
EXTT15=
EXTT16=
PLAYORDER=
